<mxfile host="app.diagrams.net" modified="2022-03-24T13:41:28.392Z" agent="5.0 (Windows NT 10.0; Win64; x64) AppleWebKit/537.36 (KHTML, like Gecko) Chrome/85.0.4183.121 Safari/537.36" etag="0-hAvbm_T9_nxTqtJY6d" version="17.1.5" type="github">
  <diagram id="GUy75SjR7ynqyHIWaE5n" name="第 1 页">
    <mxGraphModel dx="1038" dy="556" grid="1" gridSize="10" guides="1" tooltips="1" connect="1" arrows="1" fold="1" page="1" pageScale="1" pageWidth="1920" pageHeight="1200" math="0" shadow="0">
      <root>
        <mxCell id="0" />
        <mxCell id="1" parent="0" />
        <mxCell id="q0_BRSECZEaf_4aycoRN-10" style="edgeStyle=orthogonalEdgeStyle;rounded=0;orthogonalLoop=1;jettySize=auto;html=1;entryX=0;entryY=0.5;entryDx=0;entryDy=0;" parent="1" source="q0_BRSECZEaf_4aycoRN-1" target="q0_BRSECZEaf_4aycoRN-9" edge="1">
          <mxGeometry relative="1" as="geometry">
            <Array as="points">
              <mxPoint x="180" y="800" />
            </Array>
          </mxGeometry>
        </mxCell>
        <mxCell id="q0_BRSECZEaf_4aycoRN-11" style="edgeStyle=orthogonalEdgeStyle;rounded=0;orthogonalLoop=1;jettySize=auto;html=1;entryX=0;entryY=0.5;entryDx=0;entryDy=0;" parent="1" source="q0_BRSECZEaf_4aycoRN-1" target="q0_BRSECZEaf_4aycoRN-7" edge="1">
          <mxGeometry relative="1" as="geometry">
            <Array as="points">
              <mxPoint x="180" y="560" />
            </Array>
          </mxGeometry>
        </mxCell>
        <mxCell id="q0_BRSECZEaf_4aycoRN-12" style="edgeStyle=orthogonalEdgeStyle;rounded=0;orthogonalLoop=1;jettySize=auto;html=1;exitX=0.5;exitY=1;exitDx=0;exitDy=0;entryX=0;entryY=0.5;entryDx=0;entryDy=0;" parent="1" source="q0_BRSECZEaf_4aycoRN-1" target="q0_BRSECZEaf_4aycoRN-6" edge="1">
          <mxGeometry relative="1" as="geometry" />
        </mxCell>
        <mxCell id="q0_BRSECZEaf_4aycoRN-13" style="edgeStyle=orthogonalEdgeStyle;rounded=0;orthogonalLoop=1;jettySize=auto;html=1;exitX=0.5;exitY=1;exitDx=0;exitDy=0;entryX=0;entryY=0.5;entryDx=0;entryDy=0;" parent="1" source="q0_BRSECZEaf_4aycoRN-1" target="q0_BRSECZEaf_4aycoRN-5" edge="1">
          <mxGeometry relative="1" as="geometry" />
        </mxCell>
        <mxCell id="q0_BRSECZEaf_4aycoRN-14" style="edgeStyle=orthogonalEdgeStyle;rounded=0;orthogonalLoop=1;jettySize=auto;html=1;exitX=0.5;exitY=1;exitDx=0;exitDy=0;entryX=0;entryY=0.5;entryDx=0;entryDy=0;" parent="1" source="q0_BRSECZEaf_4aycoRN-1" target="q0_BRSECZEaf_4aycoRN-4" edge="1">
          <mxGeometry relative="1" as="geometry">
            <Array as="points">
              <mxPoint x="180" y="180" />
            </Array>
          </mxGeometry>
        </mxCell>
        <mxCell id="q0_BRSECZEaf_4aycoRN-15" style="edgeStyle=orthogonalEdgeStyle;rounded=0;orthogonalLoop=1;jettySize=auto;html=1;exitX=0.5;exitY=0;exitDx=0;exitDy=0;entryX=0;entryY=0.5;entryDx=0;entryDy=0;" parent="1" source="q0_BRSECZEaf_4aycoRN-1" target="q0_BRSECZEaf_4aycoRN-3" edge="1">
          <mxGeometry relative="1" as="geometry" />
        </mxCell>
        <mxCell id="q0_BRSECZEaf_4aycoRN-1" value="用户" style="rounded=0;whiteSpace=wrap;html=1;" parent="1" vertex="1">
          <mxGeometry x="120" y="110" width="120" height="60" as="geometry" />
        </mxCell>
        <mxCell id="q0_BRSECZEaf_4aycoRN-2" value="网站" style="rounded=0;whiteSpace=wrap;html=1;" parent="1" vertex="1">
          <mxGeometry x="1380" y="110" width="120" height="60" as="geometry" />
        </mxCell>
        <mxCell id="q0_BRSECZEaf_4aycoRN-3" value="2.1 比赛模块" style="rounded=1;whiteSpace=wrap;html=1;" parent="1" vertex="1">
          <mxGeometry x="660" y="30" width="120" height="60" as="geometry" />
        </mxCell>
        <mxCell id="q0_BRSECZEaf_4aycoRN-4" value="2.2 题目评测" style="rounded=1;whiteSpace=wrap;html=1;" parent="1" vertex="1">
          <mxGeometry x="660" y="150" width="120" height="60" as="geometry" />
        </mxCell>
        <mxCell id="q0_BRSECZEaf_4aycoRN-5" value="2.3 题目搜索" style="rounded=1;whiteSpace=wrap;html=1;" parent="1" vertex="1">
          <mxGeometry x="660" y="280" width="120" height="60" as="geometry" />
        </mxCell>
        <mxCell id="q0_BRSECZEaf_4aycoRN-8" style="edgeStyle=orthogonalEdgeStyle;rounded=0;orthogonalLoop=1;jettySize=auto;html=1;exitX=1;exitY=0.5;exitDx=0;exitDy=0;entryX=1;entryY=0.5;entryDx=0;entryDy=0;" parent="1" source="q0_BRSECZEaf_4aycoRN-6" target="q0_BRSECZEaf_4aycoRN-7" edge="1">
          <mxGeometry relative="1" as="geometry" />
        </mxCell>
        <mxCell id="q0_BRSECZEaf_4aycoRN-6" value="2.4 比赛创建" style="rounded=1;whiteSpace=wrap;html=1;" parent="1" vertex="1">
          <mxGeometry x="660" y="410" width="120" height="60" as="geometry" />
        </mxCell>
        <mxCell id="q0_BRSECZEaf_4aycoRN-7" value="2.5 题单模块" style="rounded=1;whiteSpace=wrap;html=1;" parent="1" vertex="1">
          <mxGeometry x="660" y="530" width="120" height="60" as="geometry" />
        </mxCell>
        <mxCell id="q0_BRSECZEaf_4aycoRN-9" value="2.6 登录+个人信息" style="rounded=1;whiteSpace=wrap;html=1;" parent="1" vertex="1">
          <mxGeometry x="660" y="770" width="120" height="60" as="geometry" />
        </mxCell>
        <mxCell id="q0_BRSECZEaf_4aycoRN-17" value="" style="curved=1;endArrow=classic;html=1;rounded=0;entryX=0;entryY=0.5;entryDx=0;entryDy=0;exitX=0;exitY=0;exitDx=0;exitDy=0;" parent="1" source="q0_BRSECZEaf_4aycoRN-6" target="q0_BRSECZEaf_4aycoRN-3" edge="1">
          <mxGeometry width="50" height="50" relative="1" as="geometry">
            <mxPoint x="630" y="240" as="sourcePoint" />
            <mxPoint x="640" y="85" as="targetPoint" />
            <Array as="points">
              <mxPoint x="580" y="390" />
              <mxPoint x="500" y="260" />
              <mxPoint x="520" y="145" />
            </Array>
          </mxGeometry>
        </mxCell>
        <mxCell id="q0_BRSECZEaf_4aycoRN-20" value="比赛为模拟比赛时，需要由比赛创建模块传入信息" style="edgeLabel;html=1;align=center;verticalAlign=middle;resizable=0;points=[];" parent="q0_BRSECZEaf_4aycoRN-17" vertex="1" connectable="0">
          <mxGeometry x="0.6058" y="-6" relative="1" as="geometry">
            <mxPoint x="14" y="-8" as="offset" />
          </mxGeometry>
        </mxCell>
        <mxCell id="q0_BRSECZEaf_4aycoRN-22" style="edgeStyle=orthogonalEdgeStyle;rounded=0;orthogonalLoop=1;jettySize=auto;html=1;exitX=0;exitY=0.5;exitDx=0;exitDy=0;entryX=0;entryY=1;entryDx=0;entryDy=0;" parent="1" source="q0_BRSECZEaf_4aycoRN-21" target="q0_BRSECZEaf_4aycoRN-1" edge="1">
          <mxGeometry relative="1" as="geometry" />
        </mxCell>
        <mxCell id="q0_BRSECZEaf_4aycoRN-21" value="2.7 题目推荐" style="rounded=1;whiteSpace=wrap;html=1;" parent="1" vertex="1">
          <mxGeometry x="660" y="650" width="120" height="60" as="geometry" />
        </mxCell>
      </root>
    </mxGraphModel>
  </diagram>
</mxfile>
